<svg width="407" height="116" fill="none" xmlns="http://www.w3.org/2000/svg"><path d="M404.505 19.2h1.5l-.7-11.4h-1.9l-3.3 9.5-3.1-9.5h-1.9l-.8 11.4h1.5l.5-10 3.3 10h1.1l3.5-10 .3 10zm-16.1 0h1.5V8.9h3.5V7.7h-8.5v1.2h3.5v10.3zm-288.3 23.3h-19.5c-1 0-1.2-.7-1-1.5 2.6-7.4 10.3-14.1 18.4-9.9 3.6 2 3.6 6.7 3.1 10.2.2.6-.3 1.2-1 1.2zm2.7-22.2c-10.1-3.9-22.8-.4-29.5 8.1-3.4 4.1-5.4 9.5-6.6 14.8-1.5 6.3-2.9 14.8-.7 21.1 2.9 8.5 11.2 12.6 19.8 12.6h18.2c1.2 0 2.2-1.1 2.2-2.3 0-5.2-4-9.1-9.2-9.1h-7.8c-2.7 0-5.8-.1-8.2-1.2-4-1.9-4.3-6.5-3.7-10.3.1-.7.5-1.2 1.4-1.2h30.2c2.2 0 3.4-1.5 3.9-3.6.7-2.6 1.1-5.2 1.4-7.8.4-8.7-2.8-17.8-11.4-21.1zm173.6 50.7-15.2-32.4 26.5-33c1.9-2.5.7-5.1-2.3-5.1h-5.1c-1.5 0-2.7.7-3.6 1.8l-27.2 33.5 4.4-10.7c.3-.7.3-1.4 0-1.9l-9.6-20.6c-.5-1.2-1.6-2.2-3.1-2.2h-49.7c28.4 2.2 39.6 5.2 47 17.9 3.5 6.2 6.3 12.8 9.3 19.2l-27.1 33.1c-.7.8-1.4 1.8-1.4 3 0 1.5 1 3.1 2.7 3.1h6.5c1.5 0 2.9-.8 3.9-2.2l20.7-25.7 11.1 23.9c1 2 1.9 3.9 4.1 3.9h4.8c1.6 0 3-.7 3.6-2.3.7-1.1.2-2.1-.3-3.3zm96.1-51.5c-10.6-1.5-24.2-2.6-31.9 6.7-4.5 6.3-3.1 13.3 1.2 18.3 4.8 5.6 12.6 7.5 17.6 12.9 2 2.3 1.1 5.9-1.4 7.4-4.5 3.1-15 1.5-19.9.5-2.6-.3-4.8-.4-5.9 1.9-.7 1.4-1.1 3.9-1 5.4.3 2.3 2.7 3.1 4.5 3.5 4 .8 8.4 1.2 12.4 1.2 9.5 0 18.8-1.9 23.5-11 1.5-4.5 1.9-10.1-1-14.4-3-4.3-7.7-6.9-12-9.7-2.6-1.8-7-3.7-8.4-6.6-.5-1.6 0-3.3 1.2-4.3 4.1-3.7 16.3-1.4 21.1-1 1.8.1 3-.7 3.9-2.2.8-1.6.8-3.4 1-5.1.6-2.5-1.7-3.1-4.9-3.5zm-221.8-.1h-21.7c-2.7 0-3.9 1.9-4.3 4.1-2.7 16.5-5.5 32.7-8.5 49-.4 2.2 1.2 4.1 3.4 4.1h5.4c2.3 0 3.4-2.2 3.7-4l7.1-40.8c.1-.7.5-1.1 1.2-1.1h12c5.5 0 6.5 3.5 5.6 8.2l-5.8 33.5c-.4 2.2 1.2 4.1 3.3 4.1h5.4c2.3 0 3.4-2.2 3.7-4l5.2-29.6c1.1-6 1.1-12.9-2.9-17.9-3-3.8-8-5.6-12.8-5.6zM59.405 0h-21.8c-10.1 0-18.6 4-24.7 10.6-4 4.3-7 9.9-8.8 16-1.6 5.9-2.7 12.2-3.5 18.3-.8 6.3-1.3 13.2 1.8 19 4.1 8 11.7 12.8 21.1 12.8h25.3c2.9 0 3.9-1.9 4.3-4.1l5.9-31.9c.4-2.6-.7-5-3.5-5h-20.1c-1.4 0-2.3 1-2.3 2.2 0 4.3 3.7 8 7.8 8.8 3.9.5 3.6 2.5 3.3 4.8l-2.2 12.7c-.1.5-.5 1-1.2 1-16.7 0-30.5 2.6-27.5-20.2 2.3-12.5 2.3-24.7 15.5-30.8 6.9-3.3 15.9-2.2 23.5-2.2 2.3 0 4.1-.5 5.6-1.5 2.1-1.5 3.5-3.9 4.1-7.3.7-2.3-.7-3.2-2.6-3.2zm238.4 76.8h21.7c2.7 0 3.9-1.9 4.3-4.1 2.7-16.5 5.5-32.7 8.5-49 .4-2.2-1.2-4.1-3.4-4.1h-5.4c-2.3 0-3.5 2.3-3.7 4l-7.1 40.8c-.1.7-.5 1.1-1.2 1.1h-12c-5.5 0-6.5-3.5-5.6-8.2l5.8-33.5c.4-2.2-1.2-4.1-3.3-4.1h-5.4c-2.3 0-3.4 2.2-3.7 4l-5.3 29.6c-1.1 6-1.1 12.9 2.9 17.9 2.9 3.6 8 5.6 12.9 5.6zm-90.6-34.3h-19.5c-1 0-1.2-.7-1-1.5 2.6-7.4 10.3-14.1 18.4-9.9 3.6 2 3.6 6.7 3.1 10.2.1.6-.3 1.2-1 1.2zm2.7-22.2c-10.1-3.9-22.8-.4-29.5 8.1-3.4 4.1-5.4 9.5-6.6 14.8-1.5 6.3-2.9 14.8-.7 21.1 2.9 8.4 11.1 12.5 19.8 12.5h18.1c1.2 0 2.2-1.1 2.2-2.3 0-5.2-4-9.1-9.2-9.1h-7.8c-2.7 0-5.8-.1-8.2-1.2-4-1.9-4.3-6.5-3.7-10.3.1-.7.5-1.2 1.4-1.2h30.1c2.2 0 3.4-1.5 3.9-3.6.7-2.6 1.1-5.2 1.4-7.8.6-8.6-2.5-17.7-11.2-21zm55.6 92.7c-7.1 0-11.4-5.9-11.4-12.2 0-6.7 3.8-12.2 11.4-12.2 5.5 0 9.7 3.2 10.1 7.8h-4.9c-.3-2.2-2.7-3.8-5.2-3.8-3.8 0-6.5 3.1-6.5 8.4 0 3.8 1.9 8.1 6.3 8.1 4.1 0 5.5-2 5.5-5.2h-5.1v-3.8h9.6v3.8c.2 5.2-2 9.1-9.8 9.1zm12.8-.8V89.1h4.4v23l-4.4.1zm6.8-9.8c.3-3.8 3.7-7.2 7.6-7.5 6-.6 9.9 3.1 9.9 8.9 0 5.3-3.4 8.9-8.7 8.9-6.1-.2-9.4-4.3-8.8-10.3zm12.8 1.2c0-3.5-1.4-5.2-4.1-5.2-2.8 0-4.1 1.7-4.1 5.2s1.4 5.2 4.1 5.2c2.7 0 4.1-1.6 4.1-5.2zm6.7 8.6V89.1h4.4v8.4c1.1-1.7 3.1-2.8 5.1-2.6 4.4 0 7.1 3.6 6.9 8.7 0 5.6-3.1 9-7.4 9-1.9.2-3.8-.9-4.7-2.5v2.2l-4.3-.1zm11.9-8.4c0-3.5-1.3-5.2-3.8-5.2s-3.8 1.9-3.8 5.5c0 2.9 1.7 4.8 3.8 4.8 2.2-.1 3.8-2 3.8-5.1zm18.1 8.4c-.2-.5-.3-1.1-.3-1.5-1.4 1.4-3.3 2-5.2 2-3.8 0-5.7-1.9-5.7-4.5 0-4.8 3.3-5.5 7.9-6.1 2.3-.3 3-.8 3-1.9 0-1.1-1.1-1.7-3-1.7-2 0-3 1.1-3.1 2.5h-4.2c0-3.5 2-5.9 7.6-5.9 5.4 0 7.2 2.5 7.2 6.7v10.5l-4.2-.1zm-.4-8.4c-.5.5-1.2.8-3 1.1-2.7.5-3.4 1.2-3.4 2.6 0 1.2.8 1.9 2.2 1.9 2.2.2 4-1.5 4.1-3.6l.1-2zm18.5 8.4V102c0-2.6-.8-3.4-3-3.4-2.3 0-3.5 1.4-3.5 3.8v9.8h-4.4v-17h4.3v2.5c1.1-1.9 2.8-2.9 5.5-2.9 3.3 0 5.7 2 5.7 5.6v11.7c0 .1-4.6.1-4.6.1zm17.5-6.4c-.2 1.9-.9 2.9-2.7 2.9-1.9 0-2.7-1.2-2.7-3.4v-7h6.9v-3.5h-6.9v-4.1h-4.4v15.1c0 3.6 2 6.9 6.9 6.9 4.7 0 6.9-3.2 6.9-6.9h-4zm-143.7-8.1c1.7 0 3 .6 3.8 1.7.9 1.1 1.4 2.8 1.4 4.7 0 2.2-.5 3.6-1.4 4.7-.9 1.1-2.2 1.7-3.8 1.7-.8 0-1.6-.2-2.2-.5-.6-.3-1.3-.8-1.7-1.4h-.2l-.5 1.7h-1.4V92.7h1.9v4.2c0 .9 0 1.9-.2 2.6h.2c.9-1.2 2.3-1.8 4.1-1.8zm-.3 1.5c-1.4 0-2.2.3-2.8 1.1-.6.8-.8 2-.8 3.8 0 1.7.3 3.1.9 3.8.6.8 1.6 1.1 2.8 1.1 1.1 0 2-.5 2.7-1.2.6-.8.8-2 .8-3.6s-.3-2.8-.8-3.6c-.8-.9-1.7-1.4-2.8-1.4zm6.9-1.3h2l2.8 7c.6 1.7.9 2.8 1.1 3.5h.2c.2-.3.3-1.1.6-2 .3-.9 1.4-3.8 3.1-8.7h2l-5.4 14.2c-.6 1.4-1.1 2.5-1.9 3.1-.8.6-1.6.9-2.7.9-.6 0-1.1 0-1.7-.2v-1.5c.5.2.9.2 1.4.2 1.4 0 2.2-.8 2.8-2.2l.8-1.9-5.1-12.4z" fill="#fff"/></svg>